<?xml version="1.0" encoding="UTF-8" standalone="no"?>
<!-- Created with Inkscape (http://www.inkscape.org/) -->

<svg
   xmlns:dc="http://purl.org/dc/elements/1.1/"
   xmlns:cc="http://creativecommons.org/ns#"
   xmlns:rdf="http://www.w3.org/1999/02/22-rdf-syntax-ns#"
   xmlns:svg="http://www.w3.org/2000/svg"
   xmlns="http://www.w3.org/2000/svg"
   xmlns:sodipodi="http://sodipodi.sourceforge.net/DTD/sodipodi-0.dtd"
   xmlns:inkscape="http://www.inkscape.org/namespaces/inkscape"
   width="73.122078mm"
   height="73.122078mm"
   viewBox="0 0 259.09397 259.09397"
   id="svg2"
   version="1.1"
   inkscape:version="0.91 r13725"
   sodipodi:docname="icon-ajiro.svg">
  <defs
     id="defs4" />
  <sodipodi:namedview
     id="base"
     pagecolor="#ffffff"
     bordercolor="#666666"
     borderopacity="1.0"
     inkscape:pageopacity="0.0"
     inkscape:pageshadow="2"
     inkscape:zoom="1.979899"
     inkscape:cx="174.90741"
     inkscape:cy="122.63348"
     inkscape:document-units="px"
     inkscape:current-layer="layer1"
     showgrid="false"
     fit-margin-top="0"
     fit-margin-left="0"
     fit-margin-right="0"
     fit-margin-bottom="0"
     inkscape:window-width="1920"
     inkscape:window-height="1024"
     inkscape:window-x="0"
     inkscape:window-y="19"
     inkscape:window-maximized="1" />
  <metadata
     id="metadata7">
    <rdf:RDF>
      <cc:Work
         rdf:about="">
        <dc:format>image/svg+xml</dc:format>
        <dc:type
           rdf:resource="http://purl.org/dc/dcmitype/StillImage" />
        <dc:title></dc:title>
      </cc:Work>
    </rdf:RDF>
  </metadata>
  <g
     inkscape:label="Calque 1"
     inkscape:groupmode="layer"
     id="layer1"
     transform="translate(-58.249378,-276.24861)">
    <g
       id="g4212"
       transform="translate(-0.47803743,12.863073)">
      <path
         sodipodi:nodetypes="sccccccccssccsccccscsscscsscscscscccscss"
         d="m 240.51371,420.239 c -0.34011,-1.24706 -1.40033,-10.2332 -4.201,-26.82175 -6.24763,-37.48582 -9.80232,-61.72234 -10.66407,-72.70956 -0.21543,-3.0161 -0.43087,-5.27818 -0.6463,-6.78623 l 0,-2.26207 c -1.07718,-3.87785 -2.3698,-6.46308 -3.87785,-7.75569 -1.93892,3.66241 -4.8473,10.12548 -8.72514,19.38922 -3.66241,9.26373 -8.29428,21.54357 -13.89561,36.83951 -5.60133,14.86507 -10.66407,27.36034 -15.18822,37.48582 -4.30871,10.12548 -8.60248,17.98498 -11.63353,24.23652 l -5.17046,10.66407 c -2.53073,5.21963 -6.78623,11.20266 -11.31038,18.74291 -4.30871,7.54025 -9.58689,16.2654 -15.83452,26.17545 -13.57245,20.68183 -27.25262,31.02274 -41.040514,31.02274 -17.881167,0 -30.484159,-7.75569 -37.808974,-23.26706 1.077179,-1.50805 1.938922,-2.36979 2.585229,-2.58523 0.646307,-0.43087 1.50805,-0.43087 2.585229,0 0.861743,0.21544 1.938921,0.32316 3.231536,0.32316 0,6.46307 5.278176,9.69461 15.834528,9.69461 16.157686,0 30.053286,-6.13992 41.686816,-18.41976 6.67851,-7.32481 12.55249,-22.31779 25.20598,-40.3942 l 6.78623,-9.69461 c 11.8654,-16.95057 23.15934,-44.48748 37.16267,-80.46525 12.49527,-31.66906 18.74291,-50.73513 18.74291,-57.1982 0,-0.64631 -0.21544,-1.40033 -0.64631,-2.26207 -0.43087,-1.07718 -0.64631,-1.93892 -0.64631,-2.58523 0,-2.80067 3.33926,-4.201 10.01777,-4.201 2.15435,0 6.24763,1.8312 12.27983,5.49361 6.0322,3.44697 9.0483,6.24764 9.0483,8.402 0,1.72349 -0.21543,4.30871 -0.6463,7.75568 -0.43087,3.23154 -0.64631,5.70905 -0.64631,7.43254 0,29.51469 4.52415,65.7079 13.57245,108.57962 3.66241,17.01942 7.10938,31.77677 10.34092,44.27204 3.23153,12.49527 6.35535,22.72847 9.37145,30.6996 0.86175,2.58523 2.26208,4.52415 4.201,5.81676 1.93892,1.07718 3.12382,1.93892 3.55469,2.58523 0,2.15436 -1.93892,3.23154 -5.81676,3.23154 -2.58523,0 -6.35536,-0.53859 -11.31038,-1.61577 -7.75569,-10.12548 -14.21815,-34.79059 -24.55968,-72.70957 z"
         style="font-style:normal;font-variant:normal;font-weight:300;font-stretch:normal;font-size:medium;line-height:100%;font-family:'Honey Script';-inkscape-font-specification:'Honey Script Light';text-align:start;letter-spacing:0px;word-spacing:0px;writing-mode:lr-tb;text-anchor:start;fill:#00135b;fill-opacity:1;stroke:none;stroke-width:1px;stroke-linecap:butt;stroke-linejoin:miter;stroke-opacity:1"
         id="path4141"
         inkscape:connector-curvature="0" />
      <path
         sodipodi:nodetypes="sscscscss"
         id="path4143-9"
         style="font-style:normal;font-variant:normal;font-weight:300;font-stretch:normal;font-size:323.15362549px;line-height:100%;font-family:'Honey Script';-inkscape-font-specification:'Honey Script Light';text-align:start;letter-spacing:0px;word-spacing:0px;writing-mode:lr-tb;text-anchor:start;fill:#eb00b5;fill-opacity:1;stroke:none;stroke-width:1px;stroke-linecap:butt;stroke-linejoin:miter;stroke-opacity:1"
         d="m 203.21078,376.29483 c 0,7.97113 -3.0161,11.95669 -9.0483,11.95669 -1.93893,0 -4.201,-0.86174 -6.78623,-2.58523 -2.36979,-1.72349 -3.55469,-3.55469 -3.55469,-5.49361 0,-0.86175 0.32315,-1.93893 0.96946,-3.23154 0.64631,-1.50805 1.40033,-2.90838 2.26208,-4.201 0.86174,-1.29261 1.8312,-2.36979 2.90838,-3.23153 1.07718,-1.07718 2.04664,-1.61577 2.90838,-1.61577 6.89395,0 10.34092,2.80066 10.34092,8.40199 z"
         inkscape:connector-curvature="0" />
      <path
         sodipodi:nodetypes="sssscsss"
         inkscape:connector-curvature="0"
         id="path4175"
         d="m 123.65704,412.27827 c 7.5602,-14.09744 19.54939,-0.1639 39.99297,7.6202 6.67103,2.54006 16.49877,3.07144 24.39682,3.54225 7.19239,0.42874 18.42474,-0.56111 32.31101,-4.33624 25.95915,-7.05728 95.67379,-47.21745 95.67379,-47.21745 0,0 -67.12812,46.1649 -94.32155,57.16552 -10.29964,4.16654 -26.72254,7.92258 -32.23467,8.27033 -22.38011,1.41191 -76.41646,-5.28244 -65.81837,-25.04461 z"
         style="fill:#eb00b5;fill-opacity:1;fill-rule:evenodd;stroke:none;stroke-width:1px;stroke-linecap:butt;stroke-linejoin:miter;stroke-opacity:1" />
      <path
         sodipodi:nodetypes="sssscss"
         id="path4145-0"
         style="font-style:normal;font-variant:normal;font-weight:300;font-stretch:normal;font-size:323.15362549px;line-height:100%;font-family:'Honey Script';-inkscape-font-specification:'Honey Script Light';text-align:start;letter-spacing:0px;word-spacing:0px;writing-mode:lr-tb;text-anchor:start;fill:#eb00b5;fill-opacity:1;stroke:none;stroke-width:1px;stroke-linecap:butt;stroke-linejoin:miter;stroke-opacity:1"
         d="m 245.51988,390.70039 c 0,7.97112 -2.69295,11.95668 -8.07884,11.95668 -3.44697,0 -6.46307,-1.40033 -9.0483,-4.20099 -2.58523,-2.80067 -3.87784,-5.92449 -3.87784,-9.37146 0,-2.15436 1.07718,-4.41644 3.23153,-6.78623 2.36979,-2.36979 4.63187,-3.55469 6.78623,-3.55469 7.32481,0 10.98722,3.98556 10.98722,11.95669 z"
         inkscape:connector-curvature="0" />
    </g>
    <rect
       style="opacity:1;fill:none;fill-opacity:1;fill-rule:nonzero;stroke:none;stroke-width:0.95352983;stroke-linecap:butt;stroke-linejoin:round;stroke-miterlimit:4;stroke-dasharray:none;stroke-dashoffset:0;stroke-opacity:1"
       id="rect4210"
       width="258.14044"
       height="258.14044"
       x="58.726128"
       y="276.72537" />
  </g>
</svg>
